<svg version="1.1" id="Layer_1" xmlns="http://www.w3.org/2000/svg" xmlns:xlink="http://www.w3.org/1999/xlink" x="0px" y="0px"
	 width="100%" viewBox="0 0 131 124" enable-background="new 0 0 131 124" xml:space="preserve">
<path fill="transparent" opacity="1.000000" stroke="none" 
	d="
M57.000000,125.000000 
	C46.312439,125.000000 35.624878,125.000000 24.284895,124.680031 
	C23.854465,123.410156 24.076456,122.460243 24.569693,121.271179 
	C25.097334,120.110352 25.353729,119.188683 25.839340,118.008072 
	C27.778425,113.187180 29.488295,108.625229 31.441896,103.925171 
	C31.839027,103.085335 31.992426,102.383614 32.446251,101.443924 
	C33.958302,98.004890 35.169933,94.803833 36.638817,91.335541 
	C37.173832,90.125862 37.451588,89.183434 37.944130,87.986000 
	C41.776802,78.486824 45.394699,69.242645 49.229942,59.805157 
	C49.602791,59.070801 49.758293,58.529755 50.128681,57.695580 
	C53.620609,49.379448 56.897652,41.356438 60.450752,33.132301 
	C61.929871,31.004215 63.132927,29.077253 64.614372,26.982632 
	C69.578323,22.790794 74.263878,18.766615 79.308571,14.717716 
	C86.049950,12.807785 92.403160,10.808836 98.846733,9.163836 
	C99.779617,8.925676 101.145912,10.385238 102.140594,11.334208 
	C101.696358,12.417546 101.423172,13.225856 100.932632,14.229298 
	C100.576630,14.968978 100.437988,15.513525 100.131401,16.334459 
	C99.692238,17.418604 99.421005,18.226362 98.930481,19.227779 
	C98.570312,19.966454 98.429451,20.511465 98.115524,21.330290 
	C97.673584,22.413059 97.404709,23.222015 96.918579,24.226179 
	C96.561928,24.966097 96.422516,25.510809 96.110168,26.343040 
	C95.830772,27.060780 95.724319,27.491001 95.402237,28.109520 
	C95.089111,28.852150 94.991623,29.406479 94.624313,30.193256 
	C93.403809,33.026752 92.453117,35.627804 91.267029,38.502857 
	C88.274086,45.816032 85.516541,52.855206 82.510681,60.135765 
	C78.637245,69.550453 75.012138,78.723755 71.211609,88.100899 
	C70.912697,88.818375 70.789192,89.332008 70.434921,90.103760 
	C67.138855,98.242378 64.073563,106.122864 60.706741,114.183662 
	C59.270145,117.909309 58.135075,121.454659 57.000000,125.000000 
z"/>
<path fill="#272727" opacity="1.000000" stroke="none" 
	d="
M132.000000,95.000000 
	C132.000000,97.041664 132.000000,99.083336 131.561188,101.425148 
	C129.342606,101.725296 127.562851,101.725296 126.609787,101.725296 
	C127.772247,109.705864 128.886124,117.352936 130.000000,125.000000 
	C120.645775,125.000000 111.291542,125.000000 101.447464,124.657753 
	C100.286171,122.879852 99.614723,121.444199 98.960724,119.721924 
	C98.684357,118.960533 98.390526,118.485771 98.092377,117.634392 
	C96.482544,113.456795 94.877029,109.655800 93.255058,105.483261 
	C92.159279,104.073143 91.079964,103.034561 89.572159,101.887489 
	C80.590149,101.663551 80.590149,101.663551 79.725723,95.558685 
	C83.160698,95.379753 86.582436,95.201508 90.328735,95.149063 
	C91.101097,95.188927 91.548889,95.102997 92.451164,95.143143 
	C101.938240,95.184952 110.970848,95.100693 120.327103,95.146393 
	C121.099312,95.190407 121.547852,95.104469 122.433159,95.142082 
	C125.582527,95.202057 128.295135,95.138481 131.264709,95.174210 
	C131.681137,95.182335 131.840561,95.091164 132.000000,95.000000 
z"/>
<path fill="#EDEDED" opacity="1.000000" stroke="none" 
	d="
M1.000000,88.000000 
	C1.000000,78.979103 1.000000,69.958206 1.468569,60.479362 
	C9.891502,60.015339 17.848598,60.128349 25.798920,59.945980 
	C29.087425,59.870548 30.146917,61.077614 30.056759,64.282784 
	C29.875107,70.740601 29.824135,77.214005 30.072191,83.667412 
	C30.213604,87.346397 28.637487,88.126534 25.358942,88.058243 
	C17.242413,87.889175 9.120030,88.001022 1.000000,88.000000 
z"/>
<path fill="#EDEDED" opacity="1.000000" stroke="none" 
	d="
M1.000000,58.000000 
	C1.000000,49.312439 1.000000,40.624874 1.415204,31.416300 
	C10.428112,30.617912 19.025560,30.245514 27.623953,30.222214 
	C28.412624,30.220078 29.852383,32.427834 29.892313,33.645405 
	C30.115515,40.451309 29.886776,47.271080 30.052977,54.080238 
	C30.129074,57.197895 28.862736,58.096420 25.925434,58.050350 
	C17.618736,57.920055 9.308713,58.001793 1.000000,58.000000 
z"/>
<path fill="#ECECEC" opacity="1.000000" stroke="none" 
	d="
M31.198166,104.063278 
	C29.488295,108.625229 27.778425,113.187180 25.333263,117.935852 
	C16.731979,118.081711 8.865990,118.040855 1.000000,118.000000 
	C1.000000,108.979103 1.000000,99.958214 1.468605,90.477013 
	C9.513650,90.010139 17.103592,90.273720 24.661478,89.895950 
	C29.214363,89.668381 30.349699,91.366417 30.110598,95.570557 
	C29.951284,98.371788 30.800392,101.230370 31.198166,104.063278 
z"/>
<path fill="#EDEDED" opacity="1.000000" stroke="none" 
	d="
M1.000000,28.000000 
	C1.000000,19.645767 1.000000,11.291536 1.220406,2.363263 
	C1.702230,1.579309 1.888626,1.316235 2.000000,1.000000 
	C11.020896,1.000000 20.041792,1.000000 29.532829,1.468655 
	C30.002789,9.210630 29.883186,16.486811 30.057243,23.755960 
	C30.134111,26.966251 29.057692,28.138521 25.794027,28.069416 
	C17.532566,27.894489 9.265076,28.004261 1.000000,28.000000 
z"/>
<path fill="#EDEDED" opacity="1.000000" stroke="none" 
	d="
M32.000000,1.000000 
	C41.020897,1.000000 50.041790,1.000000 59.532200,1.468656 
	C60.001713,10.676706 60.001713,19.416100 60.001713,28.014576 
	C54.529095,28.014576 49.705135,27.763048 44.921833,28.095848 
	C41.235977,28.352295 37.601189,29.342850 33.641373,30.003082 
	C32.937035,29.995991 32.535011,29.992800 32.106003,29.522324 
	C32.052673,19.703360 32.026337,10.351680 32.000000,1.000000 
z"/>
<path fill="#EDEDED" opacity="1.000000" stroke="none" 
	d="
M97.135834,24.030972 
	C97.404709,23.222015 97.673584,22.413059 98.377121,21.297554 
	C98.924454,20.338711 99.037117,19.686417 99.149780,19.034121 
	C99.421005,18.226362 99.692238,17.418604 100.392258,16.300894 
	C100.930695,15.338681 101.040337,14.686422 101.149986,14.034164 
	C101.423172,13.225856 101.696358,12.417546 102.467804,11.241945 
	C104.777466,8.569590 103.405769,7.492511 101.285995,7.191399 
	C99.681580,6.963492 97.885803,7.014214 96.360893,7.510983 
	C92.872269,8.647464 91.695671,7.360299 91.950470,3.998696 
	C92.025894,3.003597 91.986687,1.999807 92.000000,1.000000 
	C101.020897,1.000000 110.041786,1.000000 119.533401,1.468653 
	C120.004425,9.095343 119.870491,16.257008 120.063942,23.409821 
	C120.155106,26.780436 119.212730,28.226748 115.589531,28.083294 
	C108.940598,27.820047 102.275963,27.953279 95.617874,27.921223 
	C95.724319,27.491001 95.830772,27.060780 96.371994,26.309420 
	C96.916443,25.335844 97.026138,24.683409 97.135834,24.030972 
z"/>
<path fill="#ECECEC" opacity="1.000000" stroke="none" 
	d="
M78.949440,14.742435 
	C74.263878,18.766615 69.578323,22.790794 64.199707,26.871849 
	C63.003319,25.339561 62.101303,23.759342 62.065426,22.159697 
	C61.907303,15.109522 61.998878,8.053746 62.000000,1.000000 
	C71.020897,1.000000 80.041786,1.000000 89.546585,1.439141 
	C91.122810,7.339607 89.001991,10.396315 83.443375,11.507987 
	C81.795677,11.837513 80.439308,13.623723 78.949440,14.742435 
z"/>
<path fill="#DADADA" opacity="1.000000" stroke="none" 
	d="
M31.666668,1.000000 
	C32.026337,10.351680 32.052673,19.703360 32.059986,29.990610 
	C32.026016,38.421570 32.142361,45.920559 31.936861,53.410721 
	C31.843901,56.799000 32.810997,58.279034 36.425404,58.068611 
	C40.907890,57.807644 45.416481,57.995007 49.913795,57.988708 
	C49.758293,58.529755 49.602791,59.070801 48.761017,59.809258 
	C44.424797,60.003422 40.750698,60.262409 37.131142,59.929127 
	C32.816040,59.531799 31.716619,61.358269 31.920732,65.356155 
	C32.207981,70.982338 32.315609,76.658401 31.893444,82.267479 
	C31.541975,86.937263 33.348442,88.626060 37.729347,88.240997 
	C37.451588,89.183434 37.173832,90.125862 36.389336,90.991364 
	C33.571800,89.459152 32.104164,89.915909 32.035007,92.808159 
	C31.964342,95.763489 32.100315,98.723778 32.145824,101.681892 
	C31.992426,102.383614 31.839027,103.085335 31.441898,103.925171 
	C30.800392,101.230370 29.951284,98.371788 30.110598,95.570557 
	C30.349699,91.366417 29.214363,89.668381 24.661478,89.895950 
	C17.103592,90.273720 9.513650,90.010139 1.468605,90.008354 
	C1.000000,89.555557 1.000000,89.111107 1.000000,88.333328 
	C9.120030,88.001022 17.242413,87.889175 25.358942,88.058243 
	C28.637487,88.126534 30.213604,87.346397 30.072191,83.667412 
	C29.824135,77.214005 29.875107,70.740601 30.056759,64.282784 
	C30.146917,61.077614 29.087425,59.870548 25.798920,59.945980 
	C17.848598,60.128349 9.891502,60.015339 1.468569,60.010704 
	C1.000000,59.555553 1.000000,59.111111 1.000000,58.333332 
	C9.308713,58.001793 17.618736,57.920055 25.925434,58.050350 
	C28.862736,58.096420 30.129074,57.197895 30.052977,54.080238 
	C29.886776,47.271080 30.115515,40.451309 29.892313,33.645405 
	C29.852383,32.427834 28.412624,30.220078 27.623953,30.222214 
	C19.025560,30.245514 10.428112,30.617912 1.415204,30.947643 
	C1.000000,30.250000 1.000000,29.500000 1.000000,28.375000 
	C9.265076,28.004261 17.532566,27.894489 25.794027,28.069416 
	C29.057692,28.138521 30.134111,26.966251 30.057243,23.755960 
	C29.883186,16.486811 30.002789,9.210630 30.001484,1.468655 
	C30.444445,1.000000 30.888889,1.000000 31.666668,1.000000 
z"/>
<path fill="#D8D8D8" opacity="1.000000" stroke="none" 
	d="
M95.402237,28.109520 
	C102.275963,27.953279 108.940598,27.820047 115.589531,28.083294 
	C119.212730,28.226748 120.155106,26.780436 120.063942,23.409821 
	C119.870491,16.257008 120.004425,9.095343 120.002060,1.468653 
	C120.444443,1.000000 120.888893,1.000000 121.664032,1.468651 
	C121.994057,7.370098 121.992981,12.802895 121.992813,18.235691 
	C121.992508,28.060108 121.992729,28.060108 132.000000,28.000000 
	C132.000000,28.444445 132.000000,28.888889 131.542679,29.669142 
	C129.929932,30.005623 128.750168,30.159405 127.623322,29.980289 
	C122.911491,29.231327 121.555077,31.366510 121.920815,35.808075 
	C122.258316,39.906803 121.992584,44.055206 121.992584,48.181728 
	C121.992584,58.034637 121.992584,58.034637 132.000000,58.000000 
	C132.000000,58.444447 132.000000,58.888889 131.542603,59.666298 
	C130.097015,59.999165 129.084702,60.139862 128.124649,59.975475 
	C122.995522,59.097252 121.604126,61.328239 121.887146,66.262917 
	C122.301430,73.486137 122.001320,80.750336 121.668182,87.996857 
	C120.656044,87.996635 119.981384,87.996628 119.155518,87.659729 
	C118.573036,85.920525 118.141777,84.518219 118.123100,83.011017 
	C119.027222,81.456398 119.859680,80.025955 119.942955,78.553154 
	C120.148643,74.915237 120.011566,71.257912 120.011154,67.608383 
	C120.010246,59.591820 119.068909,58.781441 111.185188,60.146038 
	C110.387062,60.284191 109.643616,60.738274 108.618736,60.842533 
	C108.131798,59.805267 107.900925,58.971214 108.152206,58.099449 
	C110.786995,58.045444 112.966354,57.806244 115.086510,58.060566 
	C119.146263,58.547565 120.251587,56.785393 120.079132,52.955582 
	C119.811234,47.005970 119.842010,41.029190 120.065933,35.075954 
	C120.215630,31.096165 118.551590,29.842730 114.764030,29.948042 
	C108.145729,30.132059 101.517944,29.974960 94.894135,29.960808 
	C94.991623,29.406479 95.089111,28.852150 95.402237,28.109520 
z"/>
<path fill="#EDEDED" opacity="1.000000" stroke="none" 
	d="
M122.005676,87.997070 
	C122.001320,80.750336 122.301430,73.486137 121.887146,66.262917 
	C121.604126,61.328239 122.995522,59.097252 128.124649,59.975475 
	C129.084702,60.139862 130.097015,59.999165 131.542603,59.999626 
	C132.000000,69.020897 132.000000,78.041786 131.545990,87.538307 
	C128.063217,88.008308 125.034447,88.002686 122.005676,87.997070 
z"/>
<path fill="#EDEDED" opacity="1.000000" stroke="none" 
	d="
M132.000000,57.531342 
	C121.992584,58.034637 121.992584,58.034637 121.992584,48.181728 
	C121.992584,44.055206 122.258316,39.906803 121.920815,35.808075 
	C121.555077,31.366510 122.911491,29.231327 127.623322,29.980289 
	C128.750168,30.159405 129.929932,30.005623 131.542679,30.002476 
	C132.000000,39.020897 132.000000,48.041790 132.000000,57.531342 
z"/>
<path fill="#EDEDED" opacity="1.000000" stroke="none" 
	d="
M132.000000,27.531338 
	C121.992729,28.060108 121.992508,28.060108 121.992813,18.235691 
	C121.992981,12.802895 121.994057,7.370098 121.997360,1.468651 
	C125.293396,1.000000 128.586792,1.000000 132.000000,1.000000 
	C132.000000,9.687278 132.000000,18.374977 132.000000,27.531338 
z"/>
<path fill="#D6D6D6" opacity="1.000000" stroke="none" 
	d="
M90.000648,101.995987 
	C91.079964,103.034561 92.159279,104.073143 92.925835,105.762932 
	C90.529266,116.317299 91.305481,117.958839 98.096703,118.011002 
	C98.390526,118.485771 98.684357,118.960533 98.526932,119.721893 
	C94.436272,119.707535 90.986900,119.637901 92.000000,125.000000 
	C91.555557,125.000000 91.111107,125.000000 90.336258,124.569054 
	C90.461113,120.820076 88.904594,119.842834 85.732635,119.936989 
	C79.457283,120.123260 73.160439,120.227127 66.895927,119.906593 
	C62.860107,119.700081 61.433693,121.184967 62.000000,125.000000 
	C60.611111,125.000000 59.222221,125.000000 57.416668,125.000000 
	C58.135075,121.454659 59.270145,117.909309 60.985519,114.445312 
	C61.955147,116.942322 63.041840,118.159904 65.819382,118.076279 
	C72.592133,117.872360 79.377968,117.893997 86.152779,118.059898 
	C89.305130,118.137108 90.159050,116.768173 90.047806,113.898872 
	C89.894188,109.936592 90.003784,105.964104 90.000648,101.995987 
z"/>
<path fill="#EDEDED" opacity="1.000000" stroke="none" 
	d="
M62.468658,125.000000 
	C61.433693,121.184967 62.860107,119.700081 66.895927,119.906593 
	C73.160439,120.227127 79.457283,120.123260 85.732635,119.936989 
	C88.904594,119.842834 90.461113,120.820076 90.002930,124.569054 
	C80.979103,125.000000 71.958206,125.000000 62.468658,125.000000 
z"/>
<path fill="#DADADA" opacity="1.000000" stroke="none" 
	d="
M61.666668,1.000000 
	C61.998878,8.053746 61.907303,15.109522 62.065426,22.159697 
	C62.101303,23.759342 63.003319,25.339561 63.921322,27.039507 
	C63.132927,29.077253 61.929871,31.004215 60.375530,32.703094 
	C58.546986,31.652321 57.092514,30.170929 55.588589,30.118893 
	C48.380962,29.869509 41.159950,30.006969 33.943695,30.006987 
	C37.601189,29.342850 41.235977,28.352295 44.921833,28.095848 
	C49.705135,27.763048 54.529095,28.014576 60.001713,28.014576 
	C60.001713,19.416100 60.001713,10.676706 60.000854,1.468656 
	C60.444447,1.000000 60.888889,1.000000 61.666668,1.000000 
z"/>
<path fill="#ECECEC" opacity="1.000000" stroke="none" 
	d="
M24.298445,121.510345 
	C24.076456,122.460243 23.854465,123.410156 23.816238,124.680031 
	C16.979052,125.000000 9.958103,125.000000 2.356216,124.783279 
	C1.585673,124.283539 1.327247,124.094688 1.000000,124.000000 
	C1.000000,122.933327 1.000000,121.866661 1.468584,120.407822 
	C7.742765,120.009453 13.551667,119.892944 19.351871,120.066711 
	C21.013655,120.116493 22.650282,121.005913 24.298445,121.510345 
z"/>
<path fill="#DADADA" opacity="1.000000" stroke="none" 
	d="
M130.500000,125.000000 
	C128.886124,117.352936 127.772247,109.705864 126.609787,101.725296 
	C127.562851,101.725296 129.342606,101.725296 131.561188,101.862648 
	C132.000000,109.000000 132.027084,116.000275 131.956390,122.999557 
	C131.949631,123.669525 131.333328,124.333328 130.500000,125.000000 
z"/>
<path fill="#CCCCCC" opacity="1.000000" stroke="none" 
	d="
M79.308571,14.717716 
	C80.439308,13.623723 81.795677,11.837513 83.443375,11.507987 
	C89.001991,10.396315 91.122810,7.339607 90.015244,1.439141 
	C90.444443,1.000000 90.888893,1.000000 91.666672,1.000000 
	C91.986687,1.999807 92.025894,3.003597 91.950470,3.998696 
	C91.695671,7.360299 92.872269,8.647464 96.360893,7.510983 
	C97.885803,7.014214 99.681580,6.963492 101.285995,7.191399 
	C103.405769,7.492511 104.777466,8.569590 102.638855,10.966915 
	C101.145912,10.385238 99.779617,8.925676 98.846733,9.163836 
	C92.403160,10.808836 86.049950,12.807785 79.308571,14.717716 
z"/>
<path fill="#EDEDED" opacity="1.000000" stroke="none" 
	d="
M131.007751,95.074905 
	C128.295135,95.138481 125.582527,95.202057 122.440773,94.711723 
	C121.542702,90.950676 122.917305,89.654587 126.131279,89.951027 
	C128.072510,90.130074 130.042770,89.994316 132.000000,90.000000 
	C132.000000,91.066673 132.000000,92.133347 131.775681,93.719284 
	C131.370148,94.517334 131.188950,94.796127 131.007751,95.074905 
z"/>
<path fill="#DADADA" opacity="1.000000" stroke="none" 
	d="
M24.569691,121.271179 
	C22.650282,121.005913 21.013655,120.116493 19.351871,120.066711 
	C13.551667,119.892944 7.742765,120.009453 1.468584,120.007828 
	C1.000000,119.555557 1.000000,119.111107 1.000000,118.333328 
	C8.865990,118.040855 16.731979,118.081711 25.104046,118.194794 
	C25.353729,119.188683 25.097334,120.110352 24.569691,121.271179 
z"/>
<path fill="#E9E9E9" opacity="1.000000" stroke="none" 
	d="
M92.449982,125.000000 
	C90.986900,119.637901 94.436272,119.707535 98.509476,120.008514 
	C99.614723,121.444199 100.286171,122.879852 100.978806,124.657753 
	C98.299988,125.000000 95.599968,125.000000 92.449982,125.000000 
z"/>
<path fill="#D3D3D3" opacity="1.000000" stroke="none" 
	d="
M132.000000,89.666672 
	C130.042770,89.994316 128.072510,90.130074 126.131279,89.951027 
	C122.917305,89.654587 121.542702,90.950676 122.004013,94.588173 
	C121.547852,95.104469 121.099312,95.190407 120.318359,94.747726 
	C119.647728,92.444298 119.309509,90.669479 118.987167,88.644760 
	C119.104279,88.262115 119.205505,88.129364 119.306732,87.996620 
	C119.981384,87.996628 120.656044,87.996635 121.668182,87.996857 
	C125.034447,88.002686 128.063217,88.008308 131.545990,88.006966 
	C132.000000,88.444443 132.000000,88.888893 132.000000,89.666672 
z"/>
<path fill="#DADADA" opacity="1.000000" stroke="none" 
	d="
M1.000000,124.500000 
	C1.327247,124.094688 1.585673,124.283539 1.887639,124.783279 
	C1.666667,125.000000 1.333333,125.000000 1.000000,124.500000 
z"/>
<path fill="#D3D3D3" opacity="1.000000" stroke="none" 
	d="
M131.264725,95.174210 
	C131.188950,94.796127 131.370148,94.517334 131.775681,94.119278 
	C132.000000,94.000000 132.000000,94.500000 132.000000,94.750000 
	C131.840561,95.091164 131.681137,95.182335 131.264725,95.174210 
z"/>
<path fill="#DADADA" opacity="1.000000" stroke="none" 
	d="
M1.500000,1.000000 
	C1.888626,1.316235 1.702230,1.579309 1.220406,1.894611 
	C1.000000,1.666667 1.000000,1.333333 1.500000,1.000000 
z"/>
<path fill="#EBEBEB" opacity="1.000000" stroke="none" 
	d="
M33.641373,30.003082 
	C41.159950,30.006969 48.380962,29.869509 55.588589,30.118893 
	C57.092514,30.170929 58.546986,31.652321 60.099472,32.904221 
	C56.897652,41.356438 53.620609,49.379448 50.128681,57.695580 
	C45.416481,57.995007 40.907890,57.807644 36.425404,58.068611 
	C32.810997,58.279034 31.843901,56.799000 31.936861,53.410721 
	C32.142361,45.920559 32.026016,38.421570 32.086975,30.457897 
	C32.535011,29.992800 32.937035,29.995991 33.641373,30.003082 
z"/>
<path fill="#EBEBEB" opacity="1.000000" stroke="none" 
	d="
M89.572159,101.887489 
	C90.003784,105.964104 89.894188,109.936592 90.047806,113.898872 
	C90.159050,116.768173 89.305130,118.137108 86.152779,118.059898 
	C79.377968,117.893997 72.592133,117.872360 65.819382,118.076279 
	C63.041840,118.159904 61.955147,116.942322 61.287045,114.265007 
	C64.073563,106.122864 67.138855,98.242378 70.922302,90.146957 
	C76.766212,89.595268 81.891983,89.258507 87.391556,88.887070 
	C88.503624,88.948715 89.241890,89.045029 89.976791,89.561234 
	C89.983665,91.661850 89.993912,93.342552 90.004166,95.023270 
	C86.582436,95.201508 83.160698,95.379753 79.725723,95.558685 
	C80.590149,101.663551 80.590149,101.663551 89.572159,101.887489 
z"/>
<path fill="#EBEBEB" opacity="1.000000" stroke="none" 
	d="
M94.624313,30.193256 
	C101.517944,29.974960 108.145729,30.132059 114.764030,29.948042 
	C118.551590,29.842730 120.215630,31.096165 120.065933,35.075954 
	C119.842010,41.029190 119.811234,47.005970 120.079132,52.955582 
	C120.251587,56.785393 119.146263,58.547565 115.086510,58.060566 
	C112.966354,57.806244 110.786995,58.045444 107.914940,57.850510 
	C104.403679,50.817768 101.611855,43.996250 98.467422,36.313160 
	C96.387474,40.950787 94.789024,44.514843 92.866455,47.793762 
	C92.195702,44.415363 91.849068,41.322109 91.502426,38.228851 
	C92.453117,35.627804 93.403809,33.026752 94.624313,30.193256 
z"/>
<path fill="#E9E9E9" opacity="1.000000" stroke="none" 
	d="
M37.944130,87.986000 
	C33.348442,88.626060 31.541975,86.937263 31.893444,82.267479 
	C32.315609,76.658401 32.207981,70.982338 31.920732,65.356155 
	C31.716619,61.358269 32.816040,59.531799 37.131142,59.929127 
	C40.750698,60.262409 44.424797,60.003422 48.543671,60.002563 
	C45.394699,69.242645 41.776802,78.486824 37.944130,87.986000 
z"/>
<path fill="#E7E7E7" opacity="1.000000" stroke="none" 
	d="
M71.387024,87.897064 
	C75.012138,78.723755 78.637245,69.550453 82.968552,60.166054 
	C85.203186,59.990768 86.731621,60.026577 88.235367,60.442608 
	C87.872726,61.745567 87.657333,62.738121 87.177750,63.580193 
	C82.645821,71.537445 81.082153,79.605827 85.616089,87.989708 
	C80.557198,87.965782 75.972107,87.931427 71.387024,87.897064 
z"/>
<path fill="#D5D5D5" opacity="1.000000" stroke="none" 
	d="
M88.260056,60.062386 
	C86.731621,60.026577 85.203186,59.990768 83.216873,59.924671 
	C85.516541,52.855206 88.274086,45.816032 91.267029,38.502857 
	C91.849068,41.322109 92.195702,44.415363 92.864212,48.171272 
	C91.544083,52.576740 89.902069,56.319561 88.260056,60.062386 
z"/>
<path fill="#E3E3E3" opacity="1.000000" stroke="none" 
	d="
M32.446251,101.443924 
	C32.100315,98.723778 31.964342,95.763489 32.035007,92.808159 
	C32.104164,89.915909 33.571800,89.459152 36.132080,91.258606 
	C35.169933,94.803833 33.958302,98.004890 32.446251,101.443924 
z"/>
<path fill="#D3D3D3" opacity="1.000000" stroke="none" 
	d="
M71.211609,88.100906 
	C75.972107,87.931427 80.557198,87.965782 85.832001,88.082214 
	C86.826752,88.325294 86.992096,88.577782 87.017754,88.921738 
	C81.891983,89.258507 76.766212,89.595268 71.153069,89.888840 
	C70.789192,89.332008 70.912697,88.818375 71.211609,88.100906 
z"/>
<path fill="#CCCCCC" opacity="1.000000" stroke="none" 
	d="
M98.930481,19.227779 
	C99.037117,19.686417 98.924454,20.338711 98.550186,21.023743 
	C98.429451,20.511465 98.570312,19.966454 98.930481,19.227779 
z"/>
<path fill="#CCCCCC" opacity="1.000000" stroke="none" 
	d="
M100.932632,14.229298 
	C101.040337,14.686422 100.930695,15.338681 100.560196,16.024506 
	C100.437988,15.513525 100.576630,14.968978 100.932632,14.229298 
z"/>
<path fill="#CCCCCC" opacity="1.000000" stroke="none" 
	d="
M96.918587,24.226179 
	C97.026138,24.683409 96.916443,25.335844 96.544930,26.021900 
	C96.422516,25.510809 96.561928,24.966097 96.918587,24.226179 
z"/>
<path fill="#EDEDED" opacity="1.000000" stroke="none" 
	d="
M118.971291,88.894661 
	C119.309509,90.669479 119.647728,92.444298 119.994705,94.617775 
	C110.970848,95.100693 101.938240,95.184952 92.459274,94.723251 
	C92.015877,92.500374 92.018860,90.823456 92.476746,89.031494 
	C101.611542,88.909180 110.291412,88.901924 118.971291,88.894661 
z"/>
<path fill="#E3E3E3" opacity="1.000000" stroke="none" 
	d="
M98.092377,117.634392 
	C91.305481,117.958839 90.529266,116.317299 92.942299,106.134476 
	C94.877029,109.655800 96.482544,113.456795 98.092377,117.634392 
z"/>
<path fill="#D3D3D3" opacity="1.000000" stroke="none" 
	d="
M92.021835,89.146545 
	C92.018860,90.823456 92.015877,92.500374 92.004791,94.597176 
	C91.548889,95.102997 91.101097,95.188927 90.328728,95.149063 
	C89.993912,93.342552 89.983665,91.661850 90.310272,89.440536 
	C91.105354,88.982147 91.563591,89.064346 92.021835,89.146545 
z"/>
<path fill="#262626" opacity="1.000000" stroke="none" 
	d="
M92.476746,89.031494 
	C91.563591,89.064346 91.105354,88.982147 90.313644,89.020638 
	C89.241890,89.045029 88.503624,88.948715 87.391556,88.887070 
	C86.992096,88.577782 86.826752,88.325294 86.305809,88.071777 
	C81.082153,79.605827 82.645821,71.537445 87.177750,63.580193 
	C87.657333,62.738121 87.872726,61.745567 88.235367,60.442608 
	C89.902069,56.319561 91.544083,52.576740 93.188332,48.456409 
	C94.789024,44.514843 96.387474,40.950787 98.467422,36.313160 
	C101.611855,43.996250 104.403679,50.817768 107.432770,57.888222 
	C107.900925,58.971214 108.131798,59.805267 108.640205,61.217957 
	C111.848663,68.903030 114.779587,76.009476 117.710510,83.115921 
	C118.141777,84.518219 118.573036,85.920525 119.155518,87.659729 
	C119.205505,88.129364 119.104279,88.262115 118.987167,88.644760 
	C110.291412,88.901924 101.611542,88.909180 92.476746,89.031494 
z"/>
<path fill="#E7E7E7" opacity="1.000000" stroke="none" 
	d="
M118.123093,83.011017 
	C114.779587,76.009476 111.848663,68.903030 108.896271,61.421165 
	C109.643616,60.738274 110.387062,60.284191 111.185188,60.146038 
	C119.068909,58.781441 120.010246,59.591820 120.011154,67.608383 
	C120.011566,71.257912 120.148643,74.915237 119.942955,78.553154 
	C119.859680,80.025955 119.027222,81.456398 118.123093,83.011017 
z"/>
</svg>